Coordinates
version=1
nRows=11
nColumns=40
inDegrees=yes

Units are S.I. units (second, meters, Newtons, ...)
Angles are in degrees.

endheader
time	pelvis_tilt	pelvis_list	pelvis_rotation	pelvis_tx	pelvis_ty	pelvis_tz	hip_flexion_r	hip_adduction_r	hip_rotation_r	knee_angle_r	knee_angle_r_beta	ankle_angle_r	subtalar_angle_r	mtp_angle_r	hip_flexion_l	hip_adduction_l	hip_rotation_l	knee_angle_l	knee_angle_l_beta	ankle_angle_l	subtalar_angle_l	mtp_angle_l	lumbar_extension	lumbar_bending	lumbar_rotation	arm_flex_r	arm_add_r	arm_rot_r	elbow_flex_r	pro_sup_r	wrist_flex_r	wrist_dev_r	arm_flex_l	arm_add_l	arm_rot_l	elbow_flex_l	pro_sup_l	wrist_flex_l	wrist_dev_l
     52.38750000	     -3.58578003	     -5.81166888	      3.82304380	      1.08239788	      0.93262816	      0.50556051	      7.57231542	      4.07288272	    -19.95790853	     11.52851585	     11.52851585	      9.32950152	      1.56454923	     -7.22053978	     34.68641535	    -13.18495140	      0.84108470	     59.10905707	     59.10905707	      9.18907575	    -18.34843554	     12.86902776	    -10.21810177	      8.11381487	      5.08113837	     27.76679428	    -15.53085355	     -5.13763816	     42.91015675	     45.89155293	      0.00000000	      0.00000000	      0.85091025	     -7.13733277	      0.75108104	     32.18914385	     46.30365923	      0.00000000	      0.00000000
     52.39871429	     -3.67930995	     -5.85773112	      4.01447852	      1.08106531	      0.93239330	      0.50558064	      6.76132657	      4.31058636	    -19.97332735	     10.78077826	     10.78077826	      9.52187492	      1.71896436	     -7.21204069	     35.52356288	    -12.91007472	      0.98266529	     56.34810053	     56.34810053	      9.03005063	    -18.30761311	     13.23465413	    -10.28381100	      8.03853730	      4.83148241	     30.10200055	    -15.45022587	     -5.10597820	     44.91524527	     45.82520922	      0.00000000	      0.00000000	     -0.69649118	     -7.12999632	      1.04918217	     31.11831503	     46.22415335	      0.00000000	      0.00000000
     52.40992857	     -3.78772845	     -5.89315957	      4.20733597	      1.07978175	      0.93204245	      0.50542468	      5.94022745	      4.52628922	    -20.00165158	      9.99326103	      9.99326103	      9.69587695	      1.95990581	     -7.25643202	     36.20880678	    -12.57969898	      1.11351763	     53.30522321	     53.30522321	      8.83811922	    -18.25404714	     13.59024120	    -10.32608378	      7.96897436	      4.66196636	     32.31166484	    -15.40927273	     -5.02797168	     47.07963470	     45.75130131	      0.00000000	      0.00000000	     -2.12866460	     -7.08827127	      1.37211726	     29.99045441	     46.14440638	      0.00000000	      0.00000000
     52.42114286	     -3.91542318	     -6.05212409	      4.41745062	      1.07854583	      0.93143794	      0.50519237	      5.10325768	      4.86666528	    -20.19360805	      9.12005092	      9.12005092	      9.74523238	      2.46124295	     -7.80628734	     36.80671577	    -12.39952610	      1.20059738	     50.02924854	     50.02924854	      8.40022271	    -18.01039834	     13.15813976	    -10.42632643	      8.04759867	      5.03176510	     33.32773667	    -16.32648778	     -4.29651552	     51.75277897	     45.54681678	      0.00000000	      0.00000000	     -2.95454027	     -6.99361237	      2.55406323	     28.30518704	     45.91483403	      0.00000000	      0.00000000
     52.43235714	     -4.06833085	     -6.08569396	      4.60796139	      1.07739918	      0.93076178	      0.50472147	      4.34353957	      5.05432605	    -20.29824136	      8.37915993	      8.37915993	      9.94194627	      2.67877139	     -7.81871009	     37.23655454	    -11.99648240	      1.31091974	     46.57085106	     46.57085106	      8.23229764	    -17.77232641	     13.45164985	    -10.37530312	      8.00979655	      4.86141806	     35.57487692	    -16.15710122	     -4.37307266	     53.80187536	     45.48836784	      0.00000000	      0.00000000	     -4.39887756	     -6.95766751	      2.92174302	     27.42868017	     45.82459598	      0.00000000	      0.00000000
     52.44357143	     -4.37823056	     -6.29713895	      4.77329351	      1.07610207	      0.92954832	      0.50422032	      3.97738840	      5.33374499	    -20.35936975	      8.05201374	      8.05201374	     10.27623460	      2.78074828	     -7.93846225	     37.85182934	    -11.81338372	      1.39332535	     43.15212415	     43.15212415	      8.27776688	    -16.90365260	     13.76594732	    -10.16538545	      8.15611063	      5.21504445	     37.67491465	    -16.61394100	     -4.55717223	     55.01986718	     45.46418996	      0.00000000	      0.00000000	     -5.61379589	     -6.82500563	      3.03098301	     26.93212248	     45.78405678	      0.00000000	      0.00000000
     52.45478571	     -4.40284178	     -6.25325163	      4.99335657	      1.07530368	      0.92894079	      0.50343081	      2.86933041	      5.48194743	    -20.58513929	      6.97105556	      6.97105556	     10.41842645	      3.47231733	     -7.97370656	     37.74734882	    -11.27957078	      1.49562534	     39.31214545	     39.31214545	      8.07993528	    -16.32757665	     13.80544114	    -10.35620365	      8.00532228	      4.45749208	     39.70953537	    -15.92950912	     -4.45707629	     58.09159139	     45.36203704	      0.00000000	      0.00000000	     -7.16251995	     -6.79256163	      3.41691646	     26.02238353	     45.68889508	      0.00000000	      0.00000000
     52.46600000	     -4.60257270	     -6.34528430	      5.17620953	      1.07448382	      0.92777675	      0.50256428	      2.18364324	      5.67114901	    -20.79373615	      6.33364663	      6.33364663	     10.67844111	      3.97844669	     -8.11249193	     37.84993762	    -10.95460965	      1.48051088	     35.64756215	     35.64756215	      8.01451542	    -15.04840381	     13.75477343	    -10.25430088	      8.02825439	      4.38755459	     41.54542767	    -15.95365907	     -4.45804855	     60.54998545	     45.28675607	      0.00000000	      0.00000000	     -8.45619067	     -6.69275361	      3.69777713	     25.49149426	     45.61455792	      0.00000000	      0.00000000
     52.47721429	     -4.74665790	     -6.53386067	      5.37521534	      1.07390047	      0.92642541	      0.50154567	      1.43906565	      5.93694253	    -21.33914762	      5.73388600	      5.73388600	     11.02260843	      5.02671940	     -8.32854370	     37.77423470	    -10.72330241	      1.44991625	     31.98291447	     31.98291447	      7.40846739	    -13.69869578	     12.04586577	    -10.33117031	      8.19744520	      5.04696517	     42.07910409	    -17.07548217	     -4.41370641	     66.00313784	     45.11625942	      0.00000000	      0.00000000	     -9.47817712	     -6.76876378	      4.95951410	     25.49130572	     45.36169270	      0.00000000	      0.00000000
     52.48842857	     -4.94682428	     -6.60729111	      5.52845432	      1.07342533	      0.92501982	      0.50043333	      0.84691747	      6.07112030	    -21.36736266	      5.33335566	      5.33335566	     11.38939622	      5.15643592	     -8.38703007	     37.67161798	    -10.39924260	      1.27027445	     28.58573597	     28.58573597	      7.53045263	    -11.99196232	     12.38711363	    -10.18838850	      8.20811742	      4.88652753	     44.02222424	    -16.84992970	     -4.53799536	     67.56437259	     45.07992078	      0.00000000	      0.00000000	    -10.73901497	     -6.67447686	      5.21313979	     24.97366770	     45.29606773	      0.00000000	      0.00000000
     52.49964286	     -5.07810623	     -6.79091341	      5.69879731	      1.07324720	      0.92348408	      0.49921974	      0.13712300	      6.32997216	    -21.55968568	      4.87119692	      4.87119692	     11.78314508	      5.63134378	     -8.31765612	     37.55777824	    -10.24172727	      0.91804726	     25.65155329	     25.65155329	      7.71539812	    -10.01098842	     12.60480203	    -10.13499168	      8.36612904	      4.61773721	     45.67698948	    -16.56780159	     -4.59866001	     70.16931471	     45.01164671	      0.00000000	      0.00000000	    -12.11315121	     -6.60235061	      5.66985147	     24.84212789	     45.19117153	      0.00000000	      0.00000000
